<svg xmlns="http://www.w3.org/2000/svg" version="1.1" viewBox="1.5699999332427979 1.7950718402862549 395.9961242675781 513.8383178710938" width="400.00" height="518.00">
<g stroke-width="2.00" fill="none" stroke-linecap="butt">
<path stroke="#7d3938" d="&#10;  M 360.92 197.27&#10;  Q 358.69 198.50 355.79 203.54"/>
<path stroke="#7d3938" d="&#10;  M 230.43 378.24&#10;  Q 229.36 378.42 228.33 380.09&#10;  Q 226.23 383.49 225.68 384.83"/>
<path stroke="#801c1e" d="&#10;  M 140.98 203.95&#10;  L 145.83 197.76"/>
<path stroke="#801c1e" d="&#10;  M 226.44 83.57&#10;  L 231.33 77.78"/>
<path stroke="#801c1e" d="&#10;  M 297.17 88.40&#10;  L 382.00 155.69&#10;  A 0.78 0.77 -52.0 0 0 383.09 155.55&#10;  L 386.58 151.04"/>
<path stroke="#601e19" d="&#10;  M 386.58 151.04&#10;  Q 388.66 149.04 389.81 145.87&#10;  Q 390.67 143.51 390.57 139.99&#10;  Q 389.67 109.43 373.66 83.36&#10;  Q 372.19 80.95 365.39 73.03"/>
<path stroke="#6e2623" d="&#10;  M 365.39 73.03&#10;  Q 362.83 69.61 360.20 67.29&#10;  Q 344.28 53.28 324.02 46.41"/>
<path stroke="#7d3938" d="&#10;  M 324.02 46.41&#10;  Q 306.69 41.40 289.26 44.53&#10;  Q 284.60 45.37 272.50 48.23&#10;  Q 267.58 49.39 261.50 52.02&#10;  Q 258.84 53.17 258.03 53.92&#10;  Q 257.65 54.26 257.89 54.71&#10;  Q 259.36 57.40 262.69 60.05&#10;  Q 275.40 70.17 297.17 88.40"/>
<path stroke="#ea5c58" d="&#10;  M 324.02 46.41&#10;  Q 321.03 55.22 316.12 62.86&#10;  Q 308.61 74.56 299.60 86.72"/>
<path stroke="#fc5252" d="&#10;  M 299.60 86.72&#10;  L 297.17 88.40"/>
<path stroke="#cd4139" d="&#10;  M 365.39 73.03&#10;  Q 364.45 75.58 365.17 78.12&#10;  Q 365.95 80.90 366.11 83.35&#10;  Q 366.39 87.58 366.55 88.60&#10;  Q 368.30 100.25 365.57 111.78&#10;  Q 364.39 116.78 358.80 132.58"/>
<path stroke="#ed3f3e" d="&#10;  M 358.80 132.58&#10;  Q 350.46 125.59 341.90 118.40&#10;  Q 337.89 115.04 330.61 109.68&#10;  Q 325.83 106.15 319.26 100.99&#10;  Q 313.87 96.77 299.60 86.72"/>
<path stroke="#de3734" d="&#10;  M 386.58 151.04&#10;  Q 381.36 150.49 379.12 148.68&#10;  Q 371.68 142.66 363.80 137.23&#10;  Q 362.35 136.23 358.80 132.58"/>
<path stroke="#6a6a6a" d="&#10;  M 329.62 169.95&#10;  L 356.70 191.88&#10;  Q 357.13 192.23 357.46 191.78&#10;  L 379.70 161.80&#10;  A 1.04 1.03 -52.7 0 0 379.51 160.37&#10;  L 352.61 139.42"/>
<path stroke="#808181" d="&#10;  M 352.61 139.42&#10;  Q 341.80 130.50 331.06 122.22&#10;  Q 320.93 114.41 315.36 109.88&#10;  Q 285.37 85.44 255.67 60.65&#10;  C 255.16 60.22 254.37 59.30 253.70 58.63&#10;  Q 253.29 58.21 252.89 58.65&#10;  Q 245.13 67.30 236.17 79.41&#10;  Q 232.20 84.78 229.23 89.84&#10;  A 0.63 0.62 34.6 0 0 229.38 90.65&#10;  L 329.62 169.95"/>
<path stroke="#e9e9e8" d="&#10;  M 352.61 139.42&#10;  Q 341.62 155.61 337.57 161.05&#10;  Q 335.21 164.23 329.62 169.95"/>
<path stroke="#746026" d="&#10;  M 105.27 304.19&#10;  Q 108.69 304.81 110.95 301.20&#10;  Q 114.54 295.50 122.70 284.74&#10;  Q 125.04 281.66 127.30 278.50&#10;  Q 128.02 277.49 161.55 229.97&#10;  Q 167.51 221.53 173.26 213.76&#10;  Q 186.11 196.41 191.41 188.68&#10;  Q 199.23 177.30 205.19 169.24&#10;  C 210.99 161.40 215.02 155.57 220.08 148.07&#10;  Q 224.97 140.83 231.37 132.31&#10;  Q 239.15 121.95 246.43 111.33&#10;  A 0.64 0.63 36.0 0 0 246.29 110.46&#10;  L 239.79 105.55"/>
<path stroke="#746846" d="&#10;  M 239.79 105.55&#10;  L 225.86 94.36&#10;  A 0.60 0.59 37.1 0 0 225.01 94.47&#10;  Q 219.97 101.29 215.12 108.31&#10;  Q 208.29 118.20 205.39 122.23&#10;  Q 178.33 159.93 155.16 192.73&#10;  Q 149.40 200.88 143.44 208.92&#10;  Q 133.47 222.36 129.13 228.87&#10;  C 125.87 233.77 121.36 239.85 118.47 244.00&#10;  Q 111.92 253.44 80.31 298.58&#10;  Q 76.57 303.92 74.21 306.12&#10;  Q 73.79 306.51 74.32 306.72&#10;  Q 83.56 310.24 92.52 311.29&#10;  Q 94.36 311.51 96.04 311.11&#10;  Q 97.91 310.66 99.57 311.11&#10;  Q 100.08 311.24 100.45 310.87&#10;  L 104.73 306.59&#10;  A 0.53 0.53 0.0 0 0 104.35 305.68&#10;  L 102.84 305.68&#10;  Q 102.67 305.68 102.54 305.58&#10;  Q 102.30 305.39 102.33 305.14&#10;  A 0.27 0.27 0.0 0 1 102.54 304.92&#10;  L 105.27 304.19"/>
<path stroke="#e7c669" d="&#10;  M 239.79 105.55&#10;  Q 238.89 108.35 237.60 111.06&#10;  Q 235.35 115.77 231.26 125.72&#10;  Q 230.00 128.79 227.97 131.39&#10;  Q 221.88 139.19 217.40 146.93&#10;  C 215.90 149.54 213.64 152.47 211.70 155.37&#10;  Q 210.14 157.68 207.11 161.51&#10;  Q 193.55 178.61 188.95 185.22&#10;  Q 180.26 197.69 176.58 202.09&#10;  Q 174.46 204.63 171.09 208.80&#10;  C 167.53 213.22 165.33 217.68 161.89 222.30&#10;  Q 160.13 224.66 157.66 228.73&#10;  Q 147.69 245.10 145.61 247.87&#10;  Q 140.76 254.30 136.84 260.26&#10;  Q 135.99 261.55 134.51 263.19&#10;  Q 132.92 264.94 132.12 266.12&#10;  Q 128.14 272.00 122.63 277.71&#10;  C 119.90 280.54 117.79 284.04 115.52 287.10&#10;  C 111.88 291.98 109.22 296.83 105.25 301.58&#10;  Q 104.92 301.97 105.00 302.48&#10;  L 105.27 304.19"/>
<path stroke="#614512" d="&#10;  M 118.22 342.89&#10;  L 116.78 352.16&#10;  Q 116.67 352.86 117.09 352.29&#10;  Q 120.77 347.33 130.30 333.29&#10;  Q 146.16 309.92 169.27 277.99&#10;  Q 175.15 269.87 180.87 261.68&#10;  Q 197.61 237.74 215.51 213.80&#10;  Q 218.51 209.79 222.76 203.54&#10;  Q 227.89 195.97 230.10 193.34&#10;  Q 233.68 189.06 237.75 181.96&#10;  Q 241.51 175.39 258.98 151.99&#10;  C 262.53 147.23 268.31 138.62 273.38 132.24&#10;  A 1.12 1.11 36.6 0 0 273.14 130.63&#10;  L 270.69 128.92"/>
<path stroke="#746846" d="&#10;  M 270.69 128.92&#10;  L 250.14 113.03&#10;  Q 249.74 112.73 249.54 113.18&#10;  Q 248.81 114.78 248.17 115.68&#10;  Q 241.16 125.53 225.80 146.55&#10;  Q 223.82 149.26 218.97 156.58&#10;  Q 215.48 161.85 212.10 166.57&#10;  Q 197.95 186.38 188.72 199.55&#10;  Q 182.80 208.00 177.08 215.82&#10;  Q 163.91 233.82 155.21 246.56&#10;  Q 149.19 255.39 143.68 262.89&#10;  Q 132.34 278.36 116.87 300.31&#10;  Q 116.35 301.05 115.18 302.28&#10;  Q 113.62 303.91 113.47 304.28&#10;  Q 113.22 304.87 113.76 304.78&#10;  Q 115.97 304.43 118.12 304.84&#10;  A 0.66 0.65 5.3 0 1 118.66 305.48&#10;  L 118.66 308.27&#10;  Q 118.66 308.77 118.41 309.20&#10;  Q 117.56 310.68 117.60 311.59&#10;  Q 117.67 313.15 118.68 311.99&#10;  Q 119.26 311.32 119.13 309.55&#10;  Q 119.09 308.98 119.56 309.31&#10;  Q 120.22 309.77 120.14 310.27&#10;  Q 119.31 315.17 119.39 321.76&#10;  Q 119.40 322.70 119.70 323.27&#10;  Q 119.92 323.71 119.94 324.20&#10;  Q 120.35 332.90 118.22 342.89"/>
<path stroke="#d4ab55" d="&#10;  M 270.69 128.92&#10;  Q 269.79 130.91 268.94 132.95&#10;  Q 268.03 135.13 266.91 136.81&#10;  Q 263.71 141.61 261.83 143.97&#10;  Q 259.31 147.14 256.84 151.15&#10;  C 254.42 155.10 250.58 159.96 248.31 163.18&#10;  Q 244.26 168.96 237.93 178.08&#10;  Q 232.50 185.91 227.23 192.71&#10;  Q 219.66 202.48 198.98 229.97&#10;  Q 192.56 238.50 187.16 246.12&#10;  Q 186.00 247.77 161.32 282.68&#10;  Q 156.81 289.05 155.50 291.11&#10;  Q 152.73 295.43 149.70 299.56&#10;  Q 146.62 303.75 143.22 308.79&#10;  Q 138.37 315.97 136.78 318.05&#10;  Q 127.68 329.94 118.22 342.89"/>
<path stroke="#614512" d="&#10;  M 120.93 359.22&#10;  Q 123.58 359.22 128.73 358.39&#10;  Q 133.11 357.68 144.57 355.56&#10;  Q 149.38 354.67 151.32 354.06&#10;  Q 154.64 353.02 157.92 352.28&#10;  A 2.51 2.47 -78.7 0 0 159.44 351.25&#10;  C 161.22 348.67 162.91 345.75 164.60 343.37&#10;  Q 192.01 304.91 206.41 284.43&#10;  Q 221.26 263.32 235.42 243.63&#10;  Q 241.43 235.26 246.97 227.29&#10;  Q 270.93 192.77 290.33 165.61&#10;  Q 292.07 163.18 298.75 153.35&#10;  A 1.08 1.08 0.0 0 0 298.54 151.92&#10;  L 278.58 135.44&#10;  A 0.68 0.68 0.0 0 0 277.58 135.57&#10;  Q 258.25 162.69 245.69 180.78&#10;  Q 238.95 190.48 234.14 197.10&#10;  Q 202.79 240.18 197.98 246.97&#10;  Q 183.99 266.78 169.28 287.82&#10;  C 166.74 291.45 163.11 295.79 160.18 299.99&#10;  Q 139.50 329.64 129.68 343.67&#10;  Q 127.43 346.89 125.02 350.96&#10;  Q 120.77 358.12 120.53 358.56&#10;  Q 120.17 359.22 120.93 359.22"/>
<path stroke="#6f5d40" d="&#10;  M 165.14 350.08&#10;  Q 162.70 352.85 162.10 356.48&#10;  Q 162.01 356.99 162.28 357.43&#10;  Q 166.37 364.31 168.77 371.51&#10;  Q 171.66 380.18 173.87 385.49&#10;  Q 174.10 386.04 174.37 385.51&#10;  L 176.91 380.45"/>
<path stroke="#5a4317" d="&#10;  M 176.91 380.45&#10;  Q 177.48 378.41 178.42 378.91"/>
<path stroke="#614512" d="&#10;  M 178.42 378.91&#10;  Q 179.52 379.65 180.61 378.36&#10;  Q 184.37 373.92 187.14 369.78&#10;  Q 192.53 361.75 193.16 360.89&#10;  Q 220.65 323.74 241.13 295.13&#10;  Q 242.14 293.74 244.89 290.89&#10;  Q 246.28 289.47 251.65 282.44&#10;  Q 251.69 282.39 251.68 282.10&#10;  Q 251.68 281.80 251.00 281.90&#10;  Q 250.82 281.93 250.69 282.06&#10;  L 250.50 282.25&#10;  A 0.57 0.47 -86.6 0 1 249.88 281.40&#10;  Q 252.83 277.97 256.10 273.37&#10;  Q 275.94 245.45 291.63 223.38&#10;  Q 296.08 217.12 297.51 215.07&#10;  Q 300.64 210.57 303.53 206.88&#10;  Q 310.33 198.17 311.39 196.64&#10;  Q 318.32 186.61 325.45 176.71&#10;  Q 325.73 176.32 327.14 175.46&#10;  Q 327.57 175.20 327.23 174.84&#10;  Q 326.37 173.94 325.31 173.54"/>
<path stroke="#716339" d="&#10;  M 325.31 173.54&#10;  L 320.49 169.48"/>
<path stroke="#746846" d="&#10;  M 320.49 169.48&#10;  L 303.34 155.70&#10;  A 0.37 0.36 -52.3 0 0 302.81 155.77&#10;  L 165.14 350.08"/>
<path stroke="#e4c97c" d="&#10;  M 320.49 169.48&#10;  Q 318.13 173.86 315.83 178.24&#10;  Q 313.48 182.70 310.62 186.62&#10;  Q 308.25 189.87 298.79 202.77&#10;  Q 292.41 211.47 291.18 213.19&#10;  Q 287.81 217.90 283.07 223.16&#10;  C 271.39 236.13 261.50 250.11 251.22 264.79&#10;  Q 244.54 274.33 239.42 280.94&#10;  Q 223.41 301.63 211.10 316.86&#10;  Q 205.37 323.96 191.67 343.13&#10;  Q 188.81 347.13 183.35 355.73&#10;  Q 179.37 361.98 174.81 368.23"/>
<path stroke="#cda95a" d="&#10;  M 174.81 368.23&#10;  Q 172.15 360.08 168.18 354.47"/>
<path stroke="#e2c383" d="&#10;  M 168.18 354.47&#10;  Q 167.78 352.02 165.14 350.08"/>
<path stroke="#c89e54" d="&#10;  M 168.18 354.47&#10;  Q 169.39 358.04 170.94 361.40&#10;  Q 172.71 365.20 173.53 368.34&#10;  Q 175.12 374.48 176.91 380.45"/>
<path stroke="#d1a648" d="&#10;  M 325.31 173.54&#10;  Q 321.00 178.47 317.42 183.91&#10;  Q 315.45 186.90 310.04 195.04&#10;  Q 306.56 200.27 302.15 205.79&#10;  Q 298.98 209.77 295.18 215.28&#10;  Q 291.37 220.82 288.20 224.72&#10;  Q 272.31 244.33 258.25 266.75&#10;  Q 256.35 269.79 248.00 281.02&#10;  Q 246.03 283.66 243.50 287.42&#10;  Q 241.47 290.43 239.01 293.80&#10;  Q 237.76 295.52 220.85 318.60&#10;  Q 213.55 328.56 209.19 334.86&#10;  Q 202.79 344.10 196.83 352.08&#10;  Q 193.09 357.10 189.38 362.55&#10;  Q 188.07 364.47 182.23 373.24&#10;  Q 180.57 375.74 176.54 374.30"/>
<path stroke="#caa44d" d="&#10;  M 176.54 374.30&#10;  Q 174.98 370.68 174.81 368.23"/>
<path stroke="#ba8626" d="&#10;  M 178.42 378.91&#10;  Q 176.51 378.23 176.54 374.30"/>
<path stroke="#5a4317" d="&#10;  M 186.14 390.73&#10;  Q 198.17 393.36 208.53 392.94"/>
<path stroke="#614512" d="&#10;  M 208.53 392.94&#10;  Q 211.76 392.78 213.24 392.65&#10;  Q 214.52 392.54 215.16 391.41&#10;  Q 218.73 385.19 222.86 379.32&#10;  Q 260.98 325.13 278.33 301.78&#10;  Q 279.58 300.09 282.92 295.41&#10;  Q 313.09 253.13 353.70 197.27&#10;  Q 354.18 196.59 353.54 196.07&#10;  L 337.61 182.97"/>
<path stroke="#5a4317" d="&#10;  M 337.61 182.97&#10;  L 334.92 180.82"/>
<path stroke="#614512" d="&#10;  M 334.92 180.82&#10;  L 331.48 178.19&#10;  A 0.55 0.54 -52.5 0 0 330.70 178.30&#10;  Q 321.59 190.56 313.01 203.11&#10;  Q 307.97 210.49 301.48 219.46&#10;  Q 296.48 226.38 285.16 242.15&#10;  Q 283.01 245.15 280.88 248.17&#10;  Q 261.64 275.49 253.57 287.08&#10;  Q 250.12 292.03 239.63 306.14&#10;  Q 233.92 313.83 228.08 322.46&#10;  Q 220.81 333.21 213.87 342.61&#10;  C 208.52 349.85 202.87 358.90 197.14 366.63&#10;  Q 187.83 379.22 182.17 387.16&#10;  Q 181.77 387.72 180.52 388.94&#10;  A 0.39 0.39 0.0 0 0 180.71 389.60&#10;  L 186.14 390.73"/>
<path stroke="#ba8626" d="&#10;  M 334.92 180.82&#10;  Q 333.30 182.52 332.01 184.54&#10;  Q 329.85 187.93 329.46 188.47&#10;  Q 325.99 193.24 320.81 200.67&#10;  Q 316.37 207.03 311.90 212.65&#10;  Q 297.45 230.84 291.95 238.45&#10;  Q 280.65 254.09 250.12 298.22&#10;  Q 243.95 307.12 238.57 314.54&#10;  Q 231.74 323.97 216.82 344.13&#10;  C 214.18 347.69 211.04 352.60 208.05 356.98&#10;  Q 205.20 361.17 201.88 366.88&#10;  Q 198.92 371.96 196.23 376.87&#10;  C 193.60 381.68 189.65 386.18 186.14 390.73"/>
<path stroke="#ba8626" d="&#10;  M 337.61 182.97&#10;  Q 337.09 187.61 339.70 190.33&#10;  Q 346.15 197.05 346.21 197.14&#10;  Q 347.16 198.45 348.11 199.96&#10;  Q 348.28 200.23 348.10 200.48&#10;  Q 345.99 203.54 342.65 207.72&#10;  Q 338.91 212.42 337.29 214.67&#10;  Q 328.50 226.87 325.35 231.12&#10;  Q 317.43 241.78 312.44 249.10&#10;  Q 307.56 256.25 303.83 261.24&#10;  Q 297.82 269.27 295.05 273.26&#10;  Q 291.44 278.43 288.76 281.78&#10;  Q 284.60 286.97 282.36 290.22&#10;  Q 275.99 299.45 267.55 310.05&#10;  Q 265.35 312.81 255.78 326.65&#10;  Q 247.44 338.73 244.24 342.99&#10;  Q 240.40 348.10 232.32 359.54&#10;  Q 223.98 371.34 219.19 377.44&#10;  Q 214.04 383.99 208.53 392.94"/>
<path stroke="#5d472c" d="&#10;  M 58.23 474.05&#10;  Q 62.90 476.87 67.23 479.86&#10;  Q 68.80 480.94 70.09 480.96&#10;  Q 71.69 480.97 73.22 480.24&#10;  Q 81.26 476.40 88.79 471.82"/>
<path stroke="#654d2d" d="&#10;  M 88.79 471.82&#10;  Q 107.58 459.90 126.67 448.44&#10;  Q 128.18 447.53 140.30 439.20&#10;  Q 143.00 437.34 144.72 434.82&#10;  Q 146.94 431.58 148.74 428.50&#10;  Q 160.83 407.84 165.98 398.82&#10;  Q 166.01 398.77 168.06 395.66&#10;  Q 169.75 393.08 170.09 390.24"/>
<path stroke="#5d472c" d="&#10;  M 170.09 390.24&#10;  L 166.90 379.19"/>
<path stroke="#77684e" d="&#10;  M 166.90 379.19&#10;  Q 162.91 369.49 156.50 361.04&#10;  Q 155.59 359.85 155.26 359.16&#10;  A 1.79 1.78 -18.5 0 0 153.29 358.18&#10;  Q 137.21 361.38 125.75 363.27&#10;  C 119.97 364.22 115.54 365.37 109.77 366.60&#10;  Q 109.46 366.67 109.20 366.85&#10;  Q 108.74 367.17 108.68 367.20&#10;  Q 106.85 368.14 107.80 366.31&#10;  Q 112.09 357.99 113.44 347.61&#10;  Q 115.05 335.31 114.80 325.98&#10;  Q 114.76 324.51 115.21 318.15&#10;  Q 115.51 313.89 116.02 310.21&#10;  Q 116.08 309.72 116.34 309.30&#10;  Q 117.30 307.75 117.51 306.52&#10;  Q 117.63 305.87 116.99 306.03&#10;  Q 115.52 306.40 114.15 307.36&#10;  Q 113.69 307.69 113.92 308.21&#10;  Q 114.33 309.12 114.95 309.49&#10;  Q 115.36 309.73 115.27 310.20&#10;  Q 114.38 315.06 113.23 318.29&#10;  A 1.20 1.02 -67.2 0 1 111.74 319.05&#10;  L 111.51 318.93&#10;  A 1.77 1.62 19.5 0 1 110.56 317.14&#10;  Q 110.90 315.33 111.57 311.77&#10;  Q 111.87 310.16 110.92 309.15&#10;  A 1.30 1.30 0.0 0 0 109.22 308.99&#10;  Q 105.91 311.36 102.68 313.87&#10;  Q 100.95 315.20 99.90 315.61&#10;  C 96.11 317.08 91.19 316.64 87.07 315.89&#10;  Q 79.54 314.51 72.29 311.36&#10;  A 0.31 0.31 0.0 0 0 71.86 311.63&#10;  Q 71.71 314.97 70.76 319.60&#10;  Q 64.83 348.33 63.22 356.52&#10;  Q 62.73 359.04 61.28 364.67&#10;  C 60.06 369.43 59.49 374.40 58.36 379.11&#10;  Q 57.13 384.30 56.92 385.29&#10;  Q 52.49 406.63 51.82 409.60&#10;  C 50.37 415.99 49.82 420.57 48.45 425.93&#10;  Q 47.37 430.13 45.90 438.15&#10;  Q 44.43 446.14 41.53 459.58&#10;  Q 41.33 460.49 42.06 461.08&#10;  L 58.23 474.05"/>
<path stroke="#d3ad77" d="&#10;  M 166.90 379.19&#10;  Q 164.66 380.94 162.64 382.59&#10;  Q 160.95 383.98 158.85 386.44&#10;  Q 155.88 389.91 152.35 392.81&#10;  Q 147.43 396.84 147.33 396.93&#10;  Q 104.87 434.08 61.41 469.91&#10;  Q 59.56 471.43 58.23 474.05"/>
<path stroke="#c19255" d="&#10;  M 170.09 390.24&#10;  Q 166.83 391.52 165.22 393.22&#10;  Q 159.61 399.12 153.12 407.85&#10;  Q 147.53 415.38 143.46 419.82&#10;  Q 132.67 431.59 130.71 433.46&#10;  Q 112.96 450.35 93.00 463.72&#10;  Q 90.92 465.11 88.94 467.50&#10;  C 87.75 468.94 87.83 470.33 88.79 471.82"/>
<path stroke="#5d472c" d="&#10;  M 156.52 428.62&#10;  Q 159.71 426.24 163.29 424.24&#10;  Q 168.29 421.44 170.23 420.18&#10;  Q 187.95 408.71 206.24 398.49&#10;  Q 206.87 398.13 206.15 398.08&#10;  Q 193.69 397.23 181.47 393.36"/>
<path stroke="#654d2d" d="&#10;  M 181.47 393.36&#10;  L 177.04 391.30&#10;  A 0.77 0.76 29.3 0 0 176.09 391.56&#10;  Q 169.19 401.67 162.31 412.52&#10;  Q 160.19 415.86 157.58 421.24&#10;  Q 156.38 423.71 153.09 430.09&#10;  Q 152.85 430.57 153.38 430.49&#10;  Q 155.02 430.25 156.52 428.62"/>
<path stroke="#c19255" d="&#10;  M 181.47 393.36&#10;  C 185.10 397.77 188.83 398.67 193.76 399.53&#10;  Q 195.75 399.87 194.03 400.93&#10;  Q 184.45 406.87 175.54 411.54&#10;  C 173.44 412.64 170.98 414.25 168.97 416.04&#10;  Q 164.16 420.34 159.15 424.39&#10;  Q 157.95 425.36 156.52 428.62"/>
<path stroke="#e5c38b" d="&#10;  M 114.82 381.96&#10;  C 115.45 381.59 115.68 381.67 116.29 381.62&#10;  A 1.37 1.35 -69.8 0 0 117.16 381.21&#10;  Q 118.21 380.15 123.14 375.07&#10;  C 125.75 372.38 128.37 370.45 131.15 368.41&#10;  Q 135.55 365.17 130.34 366.81&#10;  Q 128.09 367.51 124.10 368.61&#10;  Q 121.52 369.32 117.75 369.86&#10;  Q 114.04 370.39 110.49 370.99&#10;  C 108.34 371.35 106.75 372.18 104.90 372.81&#10;  Q 102.15 373.76 101.06 374.88&#10;  Q 98.79 377.25 97.46 380.75&#10;  Q 95.96 384.67 93.85 391.37&#10;  Q 91.89 397.63 80.08 421.68&#10;  Q 78.47 424.95 76.48 428.69&#10;  Q 76.27 429.08 76.33 429.44&#10;  A 0.41 0.41 0.0 0 0 77.03 429.66&#10;  C 81.53 425.04 84.42 420.54 88.88 414.29&#10;  C 92.41 409.36 97.85 402.95 102.14 396.88&#10;  C 103.22 395.35 103.48 392.65 104.55 391.55&#10;  C 108.92 387.05 111.69 383.79 114.82 381.96"/>
</g>
<rect fill="#f96f6c" x="-130.82" y="-2.96" transform="translate(133.30,5.44) rotate(-0.3)" width="261.64" height="5.92" rx="0.94"/>
<path fill="#010203" d="&#10;  M 360.92 197.27&#10;  Q 358.69 198.50 355.79 203.54&#10;  Q 350.05 210.18 344.35 218.10&#10;  Q 300.72 278.78 256.88 339.31&#10;  Q 256.18 340.28 250.08 349.13&#10;  C 247.28 353.20 243.40 357.83 240.72 362.00&#10;  Q 239.86 363.33 230.45 376.98&#10;  Q 230.03 377.60 230.43 378.24&#10;  Q 229.36 378.42 228.33 380.09&#10;  Q 226.23 383.49 225.68 384.83&#10;  Q 220.89 390.40 217.56 397.14&#10;  A 2.17 2.15 -87.0 0 1 216.37 398.22&#10;  Q 212.81 399.57 209.37 401.67&#10;  Q 198.83 408.11 144.15 442.84&#10;  Q 135.64 448.25 127.18 453.42&#10;  Q 103.45 467.91 96.18 472.36&#10;  Q 90.21 476.01 76.94 484.61&#10;  Q 67.58 490.67 59.95 495.14&#10;  Q 43.40 504.84 25.62 515.62&#10;  A 0.11 0.11 0.0 0 1 25.46 515.50&#10;  Q 27.35 506.88 30.08 493.75&#10;  Q 33.62 476.72 44.80 420.32&#10;  Q 46.21 413.18 48.99 400.75&#10;  Q 54.29 377.06 56.53 364.96&#10;  Q 57.67 358.82 65.75 321.21&#10;  Q 67.11 314.86 68.01 307.34&#10;  A 4.47 4.40 -20.6 0 1 69.16 304.86&#10;  Q 73.59 300.08 76.69 295.95&#10;  Q 77.77 294.52 101.52 260.33&#10;  Q 120.37 233.20 139.64 206.39&#10;  Q 140.12 205.73 140.98 203.95&#10;  L 145.83 197.76&#10;  Q 176.39 155.01 207.11 112.09&#10;  Q 209.84 108.28 214.86 100.81&#10;  Q 215.05 100.53 220.85 92.34&#10;  Q 223.87 88.08 226.44 83.57&#10;  L 231.33 77.78&#10;  Q 245.97 57.92 250.52 52.28&#10;  Q 252.15 50.25 255.75 48.73&#10;  Q 271.02 42.29 287.78 39.49&#10;  Q 305.58 36.52 322.98 40.98&#10;  Q 332.36 43.38 341.57 48.18&#10;  Q 373.12 64.62 387.33 98.45&#10;  Q 387.95 99.94 392.32 114.24&#10;  Q 393.37 117.68 393.36 120.60&#10;  Q 393.36 122.11 393.48 124.91&#10;  Q 393.57 126.81 394.40 129.07&#10;  Q 396.33 134.34 395.79 142.03&#10;  Q 395.60 144.66 394.68 146.70&#10;  C 391.78 153.19 389.30 157.43 384.82 163.35&#10;  Q 373.00 178.96 362.08 194.18&#10;  Q 361.64 194.80 361.41 195.67&#10;  Q 361.23 196.37 360.92 197.27&#10;  Z&#10;  M 297.17 88.40&#10;  L 382.00 155.69&#10;  A 0.78 0.77 -52.0 0 0 383.09 155.55&#10;  L 386.58 151.04&#10;  Q 388.66 149.04 389.81 145.87&#10;  Q 390.67 143.51 390.57 139.99&#10;  Q 389.67 109.43 373.66 83.36&#10;  Q 372.19 80.95 365.39 73.03&#10;  Q 362.83 69.61 360.20 67.29&#10;  Q 344.28 53.28 324.02 46.41&#10;  Q 306.69 41.40 289.26 44.53&#10;  Q 284.60 45.37 272.50 48.23&#10;  Q 267.58 49.39 261.50 52.02&#10;  Q 258.84 53.17 258.03 53.92&#10;  Q 257.65 54.26 257.89 54.71&#10;  Q 259.36 57.40 262.69 60.05&#10;  Q 275.40 70.17 297.17 88.40&#10;  Z&#10;  M 329.62 169.95&#10;  L 356.70 191.88&#10;  Q 357.13 192.23 357.46 191.78&#10;  L 379.70 161.80&#10;  A 1.04 1.03 -52.7 0 0 379.51 160.37&#10;  L 352.61 139.42&#10;  Q 341.80 130.50 331.06 122.22&#10;  Q 320.93 114.41 315.36 109.88&#10;  Q 285.37 85.44 255.67 60.65&#10;  C 255.16 60.22 254.37 59.30 253.70 58.63&#10;  Q 253.29 58.21 252.89 58.65&#10;  Q 245.13 67.30 236.17 79.41&#10;  Q 232.20 84.78 229.23 89.84&#10;  A 0.63 0.62 34.6 0 0 229.38 90.65&#10;  L 329.62 169.95&#10;  Z&#10;  M 105.27 304.19&#10;  Q 108.69 304.81 110.95 301.20&#10;  Q 114.54 295.50 122.70 284.74&#10;  Q 125.04 281.66 127.30 278.50&#10;  Q 128.02 277.49 161.55 229.97&#10;  Q 167.51 221.53 173.26 213.76&#10;  Q 186.11 196.41 191.41 188.68&#10;  Q 199.23 177.30 205.19 169.24&#10;  C 210.99 161.40 215.02 155.57 220.08 148.07&#10;  Q 224.97 140.83 231.37 132.31&#10;  Q 239.15 121.95 246.43 111.33&#10;  A 0.64 0.63 36.0 0 0 246.29 110.46&#10;  L 239.79 105.55&#10;  L 225.86 94.36&#10;  A 0.60 0.59 37.1 0 0 225.01 94.47&#10;  Q 219.97 101.29 215.12 108.31&#10;  Q 208.29 118.20 205.39 122.23&#10;  Q 178.33 159.93 155.16 192.73&#10;  Q 149.40 200.88 143.44 208.92&#10;  Q 133.47 222.36 129.13 228.87&#10;  C 125.87 233.77 121.36 239.85 118.47 244.00&#10;  Q 111.92 253.44 80.31 298.58&#10;  Q 76.57 303.92 74.21 306.12&#10;  Q 73.79 306.51 74.32 306.72&#10;  Q 83.56 310.24 92.52 311.29&#10;  Q 94.36 311.51 96.04 311.11&#10;  Q 97.91 310.66 99.57 311.11&#10;  Q 100.08 311.24 100.45 310.87&#10;  L 104.73 306.59&#10;  A 0.53 0.53 0.0 0 0 104.35 305.68&#10;  L 102.84 305.68&#10;  Q 102.67 305.68 102.54 305.58&#10;  Q 102.30 305.39 102.33 305.14&#10;  A 0.27 0.27 0.0 0 1 102.54 304.92&#10;  L 105.27 304.19&#10;  Z&#10;  M 118.22 342.89&#10;  L 116.78 352.16&#10;  Q 116.67 352.86 117.09 352.29&#10;  Q 120.77 347.33 130.30 333.29&#10;  Q 146.16 309.92 169.27 277.99&#10;  Q 175.15 269.87 180.87 261.68&#10;  Q 197.61 237.74 215.51 213.80&#10;  Q 218.51 209.79 222.76 203.54&#10;  Q 227.89 195.97 230.10 193.34&#10;  Q 233.68 189.06 237.75 181.96&#10;  Q 241.51 175.39 258.98 151.99&#10;  C 262.53 147.23 268.31 138.62 273.38 132.24&#10;  A 1.12 1.11 36.6 0 0 273.14 130.63&#10;  L 270.69 128.92&#10;  L 250.14 113.03&#10;  Q 249.74 112.73 249.54 113.18&#10;  Q 248.81 114.78 248.17 115.68&#10;  Q 241.16 125.53 225.80 146.55&#10;  Q 223.82 149.26 218.97 156.58&#10;  Q 215.48 161.85 212.10 166.57&#10;  Q 197.95 186.38 188.72 199.55&#10;  Q 182.80 208.00 177.08 215.82&#10;  Q 163.91 233.82 155.21 246.56&#10;  Q 149.19 255.39 143.68 262.89&#10;  Q 132.34 278.36 116.87 300.31&#10;  Q 116.35 301.05 115.18 302.28&#10;  Q 113.62 303.91 113.47 304.28&#10;  Q 113.22 304.87 113.76 304.78&#10;  Q 115.97 304.43 118.12 304.84&#10;  A 0.66 0.65 5.3 0 1 118.66 305.48&#10;  L 118.66 308.27&#10;  Q 118.66 308.77 118.41 309.20&#10;  Q 117.56 310.68 117.60 311.59&#10;  Q 117.67 313.15 118.68 311.99&#10;  Q 119.26 311.32 119.13 309.55&#10;  Q 119.09 308.98 119.56 309.31&#10;  Q 120.22 309.77 120.14 310.27&#10;  Q 119.31 315.17 119.39 321.76&#10;  Q 119.40 322.70 119.70 323.27&#10;  Q 119.92 323.71 119.94 324.20&#10;  Q 120.35 332.90 118.22 342.89&#10;  Z&#10;  M 120.93 359.22&#10;  Q 123.58 359.22 128.73 358.39&#10;  Q 133.11 357.68 144.57 355.56&#10;  Q 149.38 354.67 151.32 354.06&#10;  Q 154.64 353.02 157.92 352.28&#10;  A 2.51 2.47 -78.7 0 0 159.44 351.25&#10;  C 161.22 348.67 162.91 345.75 164.60 343.37&#10;  Q 192.01 304.91 206.41 284.43&#10;  Q 221.26 263.32 235.42 243.63&#10;  Q 241.43 235.26 246.97 227.29&#10;  Q 270.93 192.77 290.33 165.61&#10;  Q 292.07 163.18 298.75 153.35&#10;  A 1.08 1.08 0.0 0 0 298.54 151.92&#10;  L 278.58 135.44&#10;  A 0.68 0.68 0.0 0 0 277.58 135.57&#10;  Q 258.25 162.69 245.69 180.78&#10;  Q 238.95 190.48 234.14 197.10&#10;  Q 202.79 240.18 197.98 246.97&#10;  Q 183.99 266.78 169.28 287.82&#10;  C 166.74 291.45 163.11 295.79 160.18 299.99&#10;  Q 139.50 329.64 129.68 343.67&#10;  Q 127.43 346.89 125.02 350.96&#10;  Q 120.77 358.12 120.53 358.56&#10;  Q 120.17 359.22 120.93 359.22&#10;  Z&#10;  M 165.14 350.08&#10;  Q 162.70 352.85 162.10 356.48&#10;  Q 162.01 356.99 162.28 357.43&#10;  Q 166.37 364.31 168.77 371.51&#10;  Q 171.66 380.18 173.87 385.49&#10;  Q 174.10 386.04 174.37 385.51&#10;  L 176.91 380.45&#10;  Q 177.48 378.41 178.42 378.91&#10;  Q 179.52 379.65 180.61 378.36&#10;  Q 184.37 373.92 187.14 369.78&#10;  Q 192.53 361.75 193.16 360.89&#10;  Q 220.65 323.74 241.13 295.13&#10;  Q 242.14 293.74 244.89 290.89&#10;  Q 246.28 289.47 251.65 282.44&#10;  Q 251.69 282.39 251.68 282.10&#10;  Q 251.68 281.80 251.00 281.90&#10;  Q 250.82 281.93 250.69 282.06&#10;  L 250.50 282.25&#10;  A 0.57 0.47 -86.6 0 1 249.88 281.40&#10;  Q 252.83 277.97 256.10 273.37&#10;  Q 275.94 245.45 291.63 223.38&#10;  Q 296.08 217.12 297.51 215.07&#10;  Q 300.64 210.57 303.53 206.88&#10;  Q 310.33 198.17 311.39 196.64&#10;  Q 318.32 186.61 325.45 176.71&#10;  Q 325.73 176.32 327.14 175.46&#10;  Q 327.57 175.20 327.23 174.84&#10;  Q 326.37 173.94 325.31 173.54&#10;  L 320.49 169.48&#10;  L 303.34 155.70&#10;  A 0.37 0.36 -52.3 0 0 302.81 155.77&#10;  L 165.14 350.08&#10;  Z&#10;  M 186.14 390.73&#10;  Q 198.17 393.36 208.53 392.94&#10;  Q 211.76 392.78 213.24 392.65&#10;  Q 214.52 392.54 215.16 391.41&#10;  Q 218.73 385.19 222.86 379.32&#10;  Q 260.98 325.13 278.33 301.78&#10;  Q 279.58 300.09 282.92 295.41&#10;  Q 313.09 253.13 353.70 197.27&#10;  Q 354.18 196.59 353.54 196.07&#10;  L 337.61 182.97&#10;  L 334.92 180.82&#10;  L 331.48 178.19&#10;  A 0.55 0.54 -52.5 0 0 330.70 178.30&#10;  Q 321.59 190.56 313.01 203.11&#10;  Q 307.97 210.49 301.48 219.46&#10;  Q 296.48 226.38 285.16 242.15&#10;  Q 283.01 245.15 280.88 248.17&#10;  Q 261.64 275.49 253.57 287.08&#10;  Q 250.12 292.03 239.63 306.14&#10;  Q 233.92 313.83 228.08 322.46&#10;  Q 220.81 333.21 213.87 342.61&#10;  C 208.52 349.85 202.87 358.90 197.14 366.63&#10;  Q 187.83 379.22 182.17 387.16&#10;  Q 181.77 387.72 180.52 388.94&#10;  A 0.39 0.39 0.0 0 0 180.71 389.60&#10;  L 186.14 390.73&#10;  Z&#10;  M 58.23 474.05&#10;  Q 62.90 476.87 67.23 479.86&#10;  Q 68.80 480.94 70.09 480.96&#10;  Q 71.69 480.97 73.22 480.24&#10;  Q 81.26 476.40 88.79 471.82&#10;  Q 107.58 459.90 126.67 448.44&#10;  Q 128.18 447.53 140.30 439.20&#10;  Q 143.00 437.34 144.72 434.82&#10;  Q 146.94 431.58 148.74 428.50&#10;  Q 160.83 407.84 165.98 398.82&#10;  Q 166.01 398.77 168.06 395.66&#10;  Q 169.75 393.08 170.09 390.24&#10;  L 166.90 379.19&#10;  Q 162.91 369.49 156.50 361.04&#10;  Q 155.59 359.85 155.26 359.16&#10;  A 1.79 1.78 -18.5 0 0 153.29 358.18&#10;  Q 137.21 361.38 125.75 363.27&#10;  C 119.97 364.22 115.54 365.37 109.77 366.60&#10;  Q 109.46 366.67 109.20 366.85&#10;  Q 108.74 367.17 108.68 367.20&#10;  Q 106.85 368.14 107.80 366.31&#10;  Q 112.09 357.99 113.44 347.61&#10;  Q 115.05 335.31 114.80 325.98&#10;  Q 114.76 324.51 115.21 318.15&#10;  Q 115.51 313.89 116.02 310.21&#10;  Q 116.08 309.72 116.34 309.30&#10;  Q 117.30 307.75 117.51 306.52&#10;  Q 117.63 305.87 116.99 306.03&#10;  Q 115.52 306.40 114.15 307.36&#10;  Q 113.69 307.69 113.92 308.21&#10;  Q 114.33 309.12 114.95 309.49&#10;  Q 115.36 309.73 115.27 310.20&#10;  Q 114.38 315.06 113.23 318.29&#10;  A 1.20 1.02 -67.2 0 1 111.74 319.05&#10;  L 111.51 318.93&#10;  A 1.77 1.62 19.5 0 1 110.56 317.14&#10;  Q 110.90 315.33 111.57 311.77&#10;  Q 111.87 310.16 110.92 309.15&#10;  A 1.30 1.30 0.0 0 0 109.22 308.99&#10;  Q 105.91 311.36 102.68 313.87&#10;  Q 100.95 315.20 99.90 315.61&#10;  C 96.11 317.08 91.19 316.64 87.07 315.89&#10;  Q 79.54 314.51 72.29 311.36&#10;  A 0.31 0.31 0.0 0 0 71.86 311.63&#10;  Q 71.71 314.97 70.76 319.60&#10;  Q 64.83 348.33 63.22 356.52&#10;  Q 62.73 359.04 61.28 364.67&#10;  C 60.06 369.43 59.49 374.40 58.36 379.11&#10;  Q 57.13 384.30 56.92 385.29&#10;  Q 52.49 406.63 51.82 409.60&#10;  C 50.37 415.99 49.82 420.57 48.45 425.93&#10;  Q 47.37 430.13 45.90 438.15&#10;  Q 44.43 446.14 41.53 459.58&#10;  Q 41.33 460.49 42.06 461.08&#10;  L 58.23 474.05&#10;  Z&#10;  M 156.52 428.62&#10;  Q 159.71 426.24 163.29 424.24&#10;  Q 168.29 421.44 170.23 420.18&#10;  Q 187.95 408.71 206.24 398.49&#10;  Q 206.87 398.13 206.15 398.08&#10;  Q 193.69 397.23 181.47 393.36&#10;  L 177.04 391.30&#10;  A 0.77 0.76 29.3 0 0 176.09 391.56&#10;  Q 169.19 401.67 162.31 412.52&#10;  Q 160.19 415.86 157.58 421.24&#10;  Q 156.38 423.71 153.09 430.09&#10;  Q 152.85 430.57 153.38 430.49&#10;  Q 155.02 430.25 156.52 428.62&#10;  Z"/>
<path fill="#f96f6c" d="&#10;  M 324.02 46.41&#10;  Q 321.03 55.22 316.12 62.86&#10;  Q 308.61 74.56 299.60 86.72&#10;  L 297.17 88.40&#10;  Q 275.40 70.17 262.69 60.05&#10;  Q 259.36 57.40 257.89 54.71&#10;  Q 257.65 54.26 258.03 53.92&#10;  Q 258.84 53.17 261.50 52.02&#10;  Q 267.58 49.39 272.50 48.23&#10;  Q 284.60 45.37 289.26 44.53&#10;  Q 306.69 41.40 324.02 46.41&#10;  Z"/>
<path fill="#db4943" d="&#10;  M 365.39 73.03&#10;  Q 364.45 75.58 365.17 78.12&#10;  Q 365.95 80.90 366.11 83.35&#10;  Q 366.39 87.58 366.55 88.60&#10;  Q 368.30 100.25 365.57 111.78&#10;  Q 364.39 116.78 358.80 132.58&#10;  Q 350.46 125.59 341.90 118.40&#10;  Q 337.89 115.04 330.61 109.68&#10;  Q 325.83 106.15 319.26 100.99&#10;  Q 313.87 96.77 299.60 86.72&#10;  Q 308.61 74.56 316.12 62.86&#10;  Q 321.03 55.22 324.02 46.41&#10;  Q 344.28 53.28 360.20 67.29&#10;  Q 362.83 69.61 365.39 73.03&#10;  Z"/>
<path fill="#ffffff" d="&#10;  M 352.61 139.42&#10;  Q 341.62 155.61 337.57 161.05&#10;  Q 335.21 164.23 329.62 169.95&#10;  L 229.38 90.65&#10;  A 0.63 0.62 34.6 0 1 229.23 89.84&#10;  Q 232.20 84.78 236.17 79.41&#10;  Q 245.13 67.30 252.89 58.65&#10;  Q 253.29 58.21 253.70 58.63&#10;  C 254.37 59.30 255.16 60.22 255.67 60.65&#10;  Q 285.37 85.44 315.36 109.88&#10;  Q 320.93 114.41 331.06 122.22&#10;  Q 341.80 130.50 352.61 139.42&#10;  Z"/>
<path fill="#be392f" d="&#10;  M 365.39 73.03&#10;  Q 372.19 80.95 373.66 83.36&#10;  Q 389.67 109.43 390.57 139.99&#10;  Q 390.67 143.51 389.81 145.87&#10;  Q 388.66 149.04 386.58 151.04&#10;  Q 381.36 150.49 379.12 148.68&#10;  Q 371.68 142.66 363.80 137.23&#10;  Q 362.35 136.23 358.80 132.58&#10;  Q 364.39 116.78 365.57 111.78&#10;  Q 368.30 100.25 366.55 88.60&#10;  Q 366.39 87.58 366.11 83.35&#10;  Q 365.95 80.90 365.17 78.12&#10;  Q 364.45 75.58 365.39 73.03&#10;  Z"/>
<path fill="#fe3538" d="&#10;  M 231.33 77.78&#10;  L 226.44 83.57&#10;  Q 226.13 82.44 225.52 82.44&#10;  Q 175.98 82.07 114.75 82.83&#10;  Q 102.73 82.98 94.75 82.97&#10;  Q 52.42 82.96 3.10 83.21&#10;  Q 1.70 83.22 1.70 81.82&#10;  L 1.70 79.28&#10;  Q 1.70 77.90 3.08 77.88&#10;  Q 117.99 77.03 224.50 77.16&#10;  Q 226.65 77.16 231.33 77.78&#10;  Z"/>
<path fill="#fe3538" d="&#10;  M 299.60 86.72&#10;  Q 313.87 96.77 319.26 100.99&#10;  Q 325.83 106.15 330.61 109.68&#10;  Q 337.89 115.04 341.90 118.40&#10;  Q 350.46 125.59 358.80 132.58&#10;  Q 362.35 136.23 363.80 137.23&#10;  Q 371.68 142.66 379.12 148.68&#10;  Q 381.36 150.49 386.58 151.04&#10;  L 383.09 155.55&#10;  A 0.78 0.77 -52.0 0 1 382.00 155.69&#10;  L 297.17 88.40&#10;  L 299.60 86.72&#10;  Z"/>
<path fill="#e7ce89" d="&#10;  M 239.79 105.55&#10;  Q 238.89 108.35 237.60 111.06&#10;  Q 235.35 115.77 231.26 125.72&#10;  Q 230.00 128.79 227.97 131.39&#10;  Q 221.88 139.19 217.40 146.93&#10;  C 215.90 149.54 213.64 152.47 211.70 155.37&#10;  Q 210.14 157.68 207.11 161.51&#10;  Q 193.55 178.61 188.95 185.22&#10;  Q 180.26 197.69 176.58 202.09&#10;  Q 174.46 204.63 171.09 208.80&#10;  C 167.53 213.22 165.33 217.68 161.89 222.30&#10;  Q 160.13 224.66 157.66 228.73&#10;  Q 147.69 245.10 145.61 247.87&#10;  Q 140.76 254.30 136.84 260.26&#10;  Q 135.99 261.55 134.51 263.19&#10;  Q 132.92 264.94 132.12 266.12&#10;  Q 128.14 272.00 122.63 277.71&#10;  C 119.90 280.54 117.79 284.04 115.52 287.10&#10;  C 111.88 291.98 109.22 296.83 105.25 301.58&#10;  Q 104.92 301.97 105.00 302.48&#10;  L 105.27 304.19&#10;  L 102.54 304.92&#10;  A 0.27 0.27 0.0 0 0 102.33 305.14&#10;  Q 102.30 305.39 102.54 305.58&#10;  Q 102.67 305.68 102.84 305.68&#10;  L 104.35 305.68&#10;  A 0.53 0.53 0.0 0 1 104.73 306.59&#10;  L 100.45 310.87&#10;  Q 100.08 311.24 99.57 311.11&#10;  Q 97.91 310.66 96.04 311.11&#10;  Q 94.36 311.51 92.52 311.29&#10;  Q 83.56 310.24 74.32 306.72&#10;  Q 73.79 306.51 74.21 306.12&#10;  Q 76.57 303.92 80.31 298.58&#10;  Q 111.92 253.44 118.47 244.00&#10;  C 121.36 239.85 125.87 233.77 129.13 228.87&#10;  Q 133.47 222.36 143.44 208.92&#10;  Q 149.40 200.88 155.16 192.73&#10;  Q 178.33 159.93 205.39 122.23&#10;  Q 208.29 118.20 215.12 108.31&#10;  Q 219.97 101.29 225.01 94.47&#10;  A 0.60 0.59 37.1 0 1 225.86 94.36&#10;  L 239.79 105.55&#10;  Z"/>
<path fill="#e7bd48" d="&#10;  M 105.27 304.19&#10;  L 105.00 302.48&#10;  Q 104.92 301.97 105.25 301.58&#10;  C 109.22 296.83 111.88 291.98 115.52 287.10&#10;  C 117.79 284.04 119.90 280.54 122.63 277.71&#10;  Q 128.14 272.00 132.12 266.12&#10;  Q 132.92 264.94 134.51 263.19&#10;  Q 135.99 261.55 136.84 260.26&#10;  Q 140.76 254.30 145.61 247.87&#10;  Q 147.69 245.10 157.66 228.73&#10;  Q 160.13 224.66 161.89 222.30&#10;  C 165.33 217.68 167.53 213.22 171.09 208.80&#10;  Q 174.46 204.63 176.58 202.09&#10;  Q 180.26 197.69 188.95 185.22&#10;  Q 193.55 178.61 207.11 161.51&#10;  Q 210.14 157.68 211.70 155.37&#10;  C 213.64 152.47 215.90 149.54 217.40 146.93&#10;  Q 221.88 139.19 227.97 131.39&#10;  Q 230.00 128.79 231.26 125.72&#10;  Q 235.35 115.77 237.60 111.06&#10;  Q 238.89 108.35 239.79 105.55&#10;  L 246.29 110.46&#10;  A 0.64 0.63 36.0 0 1 246.43 111.33&#10;  Q 239.15 121.95 231.37 132.31&#10;  Q 224.97 140.83 220.08 148.07&#10;  C 215.02 155.57 210.99 161.40 205.19 169.24&#10;  Q 199.23 177.30 191.41 188.68&#10;  Q 186.11 196.41 173.26 213.76&#10;  Q 167.51 221.53 161.55 229.97&#10;  Q 128.02 277.49 127.30 278.50&#10;  Q 125.04 281.66 122.70 284.74&#10;  Q 114.54 295.50 110.95 301.20&#10;  Q 108.69 304.81 105.27 304.19&#10;  Z"/>
<path fill="#e7ce89" d="&#10;  M 270.69 128.92&#10;  Q 269.79 130.91 268.94 132.95&#10;  Q 268.03 135.13 266.91 136.81&#10;  Q 263.71 141.61 261.83 143.97&#10;  Q 259.31 147.14 256.84 151.15&#10;  C 254.42 155.10 250.58 159.96 248.31 163.18&#10;  Q 244.26 168.96 237.93 178.08&#10;  Q 232.50 185.91 227.23 192.71&#10;  Q 219.66 202.48 198.98 229.97&#10;  Q 192.56 238.50 187.16 246.12&#10;  Q 186.00 247.77 161.32 282.68&#10;  Q 156.81 289.05 155.50 291.11&#10;  Q 152.73 295.43 149.70 299.56&#10;  Q 146.62 303.75 143.22 308.79&#10;  Q 138.37 315.97 136.78 318.05&#10;  Q 127.68 329.94 118.22 342.89&#10;  Q 120.35 332.90 119.94 324.20&#10;  Q 119.92 323.71 119.70 323.27&#10;  Q 119.40 322.70 119.39 321.76&#10;  Q 119.31 315.17 120.14 310.27&#10;  Q 120.22 309.77 119.56 309.31&#10;  Q 119.09 308.98 119.13 309.55&#10;  Q 119.26 311.32 118.68 311.99&#10;  Q 117.67 313.15 117.60 311.59&#10;  Q 117.56 310.68 118.41 309.20&#10;  Q 118.66 308.77 118.66 308.27&#10;  L 118.66 305.48&#10;  A 0.66 0.65 5.3 0 0 118.12 304.84&#10;  Q 115.97 304.43 113.76 304.78&#10;  Q 113.22 304.87 113.47 304.28&#10;  Q 113.62 303.91 115.18 302.28&#10;  Q 116.35 301.05 116.87 300.31&#10;  Q 132.34 278.36 143.68 262.89&#10;  Q 149.19 255.39 155.21 246.56&#10;  Q 163.91 233.82 177.08 215.82&#10;  Q 182.80 208.00 188.72 199.55&#10;  Q 197.95 186.38 212.10 166.57&#10;  Q 215.48 161.85 218.97 156.58&#10;  Q 223.82 149.26 225.80 146.55&#10;  Q 241.16 125.53 248.17 115.68&#10;  Q 248.81 114.78 249.54 113.18&#10;  Q 249.74 112.73 250.14 113.03&#10;  L 270.69 128.92&#10;  Z"/>
<path fill="#c18821" d="&#10;  M 270.69 128.92&#10;  L 273.14 130.63&#10;  A 1.12 1.11 36.6 0 1 273.38 132.24&#10;  C 268.31 138.62 262.53 147.23 258.98 151.99&#10;  Q 241.51 175.39 237.75 181.96&#10;  Q 233.68 189.06 230.10 193.34&#10;  Q 227.89 195.97 222.76 203.54&#10;  Q 218.51 209.79 215.51 213.80&#10;  Q 197.61 237.74 180.87 261.68&#10;  Q 175.15 269.87 169.27 277.99&#10;  Q 146.16 309.92 130.30 333.29&#10;  Q 120.77 347.33 117.09 352.29&#10;  Q 116.67 352.86 116.78 352.16&#10;  L 118.22 342.89&#10;  Q 127.68 329.94 136.78 318.05&#10;  Q 138.37 315.97 143.22 308.79&#10;  Q 146.62 303.75 149.70 299.56&#10;  Q 152.73 295.43 155.50 291.11&#10;  Q 156.81 289.05 161.32 282.68&#10;  Q 186.00 247.77 187.16 246.12&#10;  Q 192.56 238.50 198.98 229.97&#10;  Q 219.66 202.48 227.23 192.71&#10;  Q 232.50 185.91 237.93 178.08&#10;  Q 244.26 168.96 248.31 163.18&#10;  C 250.58 159.96 254.42 155.10 256.84 151.15&#10;  Q 259.31 147.14 261.83 143.97&#10;  Q 263.71 141.61 266.91 136.81&#10;  Q 268.03 135.13 268.94 132.95&#10;  Q 269.79 130.91 270.69 128.92&#10;  Z"/>
<path fill="#c18821" d="&#10;  M 120.53 358.56&#10;  Q 120.77 358.12 125.02 350.96&#10;  Q 127.43 346.89 129.68 343.67&#10;  Q 139.50 329.64 160.18 299.99&#10;  C 163.11 295.79 166.74 291.45 169.28 287.82&#10;  Q 183.99 266.78 197.98 246.97&#10;  Q 202.79 240.18 234.14 197.10&#10;  Q 238.95 190.48 245.69 180.78&#10;  Q 258.25 162.69 277.58 135.57&#10;  A 0.68 0.68 0.0 0 1 278.58 135.44&#10;  L 298.54 151.92&#10;  A 1.08 1.08 0.0 0 1 298.75 153.35&#10;  Q 292.07 163.18 290.33 165.61&#10;  Q 270.93 192.77 246.97 227.29&#10;  Q 241.43 235.26 235.42 243.63&#10;  Q 221.26 263.32 206.41 284.43&#10;  Q 192.01 304.91 164.60 343.37&#10;  C 162.91 345.75 161.22 348.67 159.44 351.25&#10;  A 2.51 2.47 -78.7 0 1 157.92 352.28&#10;  Q 154.64 353.02 151.32 354.06&#10;  Q 149.38 354.67 144.57 355.56&#10;  Q 133.11 357.68 128.73 358.39&#10;  Q 123.58 359.22 120.93 359.22&#10;  Q 120.17 359.22 120.53 358.56&#10;  Z"/>
<path fill="#d3d2d0" d="&#10;  M 329.62 169.95&#10;  Q 335.21 164.23 337.57 161.05&#10;  Q 341.62 155.61 352.61 139.42&#10;  L 379.51 160.37&#10;  A 1.04 1.03 -52.7 0 1 379.70 161.80&#10;  L 357.46 191.78&#10;  Q 357.13 192.23 356.70 191.88&#10;  L 329.62 169.95&#10;  Z"/>
<path fill="#e7ce89" d="&#10;  M 320.49 169.48&#10;  Q 318.13 173.86 315.83 178.24&#10;  Q 313.48 182.70 310.62 186.62&#10;  Q 308.25 189.87 298.79 202.77&#10;  Q 292.41 211.47 291.18 213.19&#10;  Q 287.81 217.90 283.07 223.16&#10;  C 271.39 236.13 261.50 250.11 251.22 264.79&#10;  Q 244.54 274.33 239.42 280.94&#10;  Q 223.41 301.63 211.10 316.86&#10;  Q 205.37 323.96 191.67 343.13&#10;  Q 188.81 347.13 183.35 355.73&#10;  Q 179.37 361.98 174.81 368.23&#10;  Q 172.15 360.08 168.18 354.47&#10;  Q 167.78 352.02 165.14 350.08&#10;  L 302.81 155.77&#10;  A 0.37 0.36 -52.3 0 1 303.34 155.70&#10;  L 320.49 169.48&#10;  Z"/>
<path fill="#e0c36e" d="&#10;  M 325.31 173.54&#10;  Q 321.00 178.47 317.42 183.91&#10;  Q 315.45 186.90 310.04 195.04&#10;  Q 306.56 200.27 302.15 205.79&#10;  Q 298.98 209.77 295.18 215.28&#10;  Q 291.37 220.82 288.20 224.72&#10;  Q 272.31 244.33 258.25 266.75&#10;  Q 256.35 269.79 248.00 281.02&#10;  Q 246.03 283.66 243.50 287.42&#10;  Q 241.47 290.43 239.01 293.80&#10;  Q 237.76 295.52 220.85 318.60&#10;  Q 213.55 328.56 209.19 334.86&#10;  Q 202.79 344.10 196.83 352.08&#10;  Q 193.09 357.10 189.38 362.55&#10;  Q 188.07 364.47 182.23 373.24&#10;  Q 180.57 375.74 176.54 374.30&#10;  Q 174.98 370.68 174.81 368.23&#10;  Q 179.37 361.98 183.35 355.73&#10;  Q 188.81 347.13 191.67 343.13&#10;  Q 205.37 323.96 211.10 316.86&#10;  Q 223.41 301.63 239.42 280.94&#10;  Q 244.54 274.33 251.22 264.79&#10;  C 261.50 250.11 271.39 236.13 283.07 223.16&#10;  Q 287.81 217.90 291.18 213.19&#10;  Q 292.41 211.47 298.79 202.77&#10;  Q 308.25 189.87 310.62 186.62&#10;  Q 313.48 182.70 315.83 178.24&#10;  Q 318.13 173.86 320.49 169.48&#10;  L 325.31 173.54&#10;  Z"/>
<path fill="#c18821" d="&#10;  M 178.42 378.91&#10;  Q 176.51 378.23 176.54 374.30&#10;  Q 180.57 375.74 182.23 373.24&#10;  Q 188.07 364.47 189.38 362.55&#10;  Q 193.09 357.10 196.83 352.08&#10;  Q 202.79 344.10 209.19 334.86&#10;  Q 213.55 328.56 220.85 318.60&#10;  Q 237.76 295.52 239.01 293.80&#10;  Q 241.47 290.43 243.50 287.42&#10;  Q 246.03 283.66 248.00 281.02&#10;  Q 256.35 269.79 258.25 266.75&#10;  Q 272.31 244.33 288.20 224.72&#10;  Q 291.37 220.82 295.18 215.28&#10;  Q 298.98 209.77 302.15 205.79&#10;  Q 306.56 200.27 310.04 195.04&#10;  Q 315.45 186.90 317.42 183.91&#10;  Q 321.00 178.47 325.31 173.54&#10;  Q 326.37 173.94 327.23 174.84&#10;  Q 327.57 175.20 327.14 175.46&#10;  Q 325.73 176.32 325.45 176.71&#10;  Q 318.32 186.61 311.39 196.64&#10;  Q 310.33 198.17 303.53 206.88&#10;  Q 300.64 210.57 297.51 215.07&#10;  Q 296.08 217.12 291.63 223.38&#10;  Q 275.94 245.45 256.10 273.37&#10;  Q 252.83 277.97 249.88 281.40&#10;  A 0.57 0.47 -86.6 0 0 250.50 282.25&#10;  L 250.69 282.06&#10;  Q 250.82 281.93 251.00 281.90&#10;  Q 251.68 281.80 251.68 282.10&#10;  Q 251.69 282.39 251.65 282.44&#10;  Q 246.28 289.47 244.89 290.89&#10;  Q 242.14 293.74 241.13 295.13&#10;  Q 220.65 323.74 193.16 360.89&#10;  Q 192.53 361.75 187.14 369.78&#10;  Q 184.37 373.92 180.61 378.36&#10;  Q 179.52 379.65 178.42 378.91&#10;  Z"/>
<path fill="#c18821" d="&#10;  M 334.92 180.82&#10;  Q 333.30 182.52 332.01 184.54&#10;  Q 329.85 187.93 329.46 188.47&#10;  Q 325.99 193.24 320.81 200.67&#10;  Q 316.37 207.03 311.90 212.65&#10;  Q 297.45 230.84 291.95 238.45&#10;  Q 280.65 254.09 250.12 298.22&#10;  Q 243.95 307.12 238.57 314.54&#10;  Q 231.74 323.97 216.82 344.13&#10;  C 214.18 347.69 211.04 352.60 208.05 356.98&#10;  Q 205.20 361.17 201.88 366.88&#10;  Q 198.92 371.96 196.23 376.87&#10;  C 193.60 381.68 189.65 386.18 186.14 390.73&#10;  L 180.71 389.60&#10;  A 0.39 0.39 0.0 0 1 180.52 388.94&#10;  Q 181.77 387.72 182.17 387.16&#10;  Q 187.83 379.22 197.14 366.63&#10;  C 202.87 358.90 208.52 349.85 213.87 342.61&#10;  Q 220.81 333.21 228.08 322.46&#10;  Q 233.92 313.83 239.63 306.14&#10;  Q 250.12 292.03 253.57 287.08&#10;  Q 261.64 275.49 280.88 248.17&#10;  Q 283.01 245.15 285.16 242.15&#10;  Q 296.48 226.38 301.48 219.46&#10;  Q 307.97 210.49 313.01 203.11&#10;  Q 321.59 190.56 330.70 178.30&#10;  A 0.55 0.54 -52.5 0 1 331.48 178.19&#10;  L 334.92 180.82&#10;  Z"/>
<path fill="#b3842b" d="&#10;  M 337.61 182.97&#10;  Q 337.09 187.61 339.70 190.33&#10;  Q 346.15 197.05 346.21 197.14&#10;  Q 347.16 198.45 348.11 199.96&#10;  Q 348.28 200.23 348.10 200.48&#10;  Q 345.99 203.54 342.65 207.72&#10;  Q 338.91 212.42 337.29 214.67&#10;  Q 328.50 226.87 325.35 231.12&#10;  Q 317.43 241.78 312.44 249.10&#10;  Q 307.56 256.25 303.83 261.24&#10;  Q 297.82 269.27 295.05 273.26&#10;  Q 291.44 278.43 288.76 281.78&#10;  Q 284.60 286.97 282.36 290.22&#10;  Q 275.99 299.45 267.55 310.05&#10;  Q 265.35 312.81 255.78 326.65&#10;  Q 247.44 338.73 244.24 342.99&#10;  Q 240.40 348.10 232.32 359.54&#10;  Q 223.98 371.34 219.19 377.44&#10;  Q 214.04 383.99 208.53 392.94&#10;  Q 198.17 393.36 186.14 390.73&#10;  C 189.65 386.18 193.60 381.68 196.23 376.87&#10;  Q 198.92 371.96 201.88 366.88&#10;  Q 205.20 361.17 208.05 356.98&#10;  C 211.04 352.60 214.18 347.69 216.82 344.13&#10;  Q 231.74 323.97 238.57 314.54&#10;  Q 243.95 307.12 250.12 298.22&#10;  Q 280.65 254.09 291.95 238.45&#10;  Q 297.45 230.84 311.90 212.65&#10;  Q 316.37 207.03 320.81 200.67&#10;  Q 325.99 193.24 329.46 188.47&#10;  Q 329.85 187.93 332.01 184.54&#10;  Q 333.30 182.52 334.92 180.82&#10;  L 337.61 182.97&#10;  Z"/>
<path fill="#c18821" d="&#10;  M 208.53 392.94&#10;  Q 214.04 383.99 219.19 377.44&#10;  Q 223.98 371.34 232.32 359.54&#10;  Q 240.40 348.10 244.24 342.99&#10;  Q 247.44 338.73 255.78 326.65&#10;  Q 265.35 312.81 267.55 310.05&#10;  Q 275.99 299.45 282.36 290.22&#10;  Q 284.60 286.97 288.76 281.78&#10;  Q 291.44 278.43 295.05 273.26&#10;  Q 297.82 269.27 303.83 261.24&#10;  Q 307.56 256.25 312.44 249.10&#10;  Q 317.43 241.78 325.35 231.12&#10;  Q 328.50 226.87 337.29 214.67&#10;  Q 338.91 212.42 342.65 207.72&#10;  Q 345.99 203.54 348.10 200.48&#10;  Q 348.28 200.23 348.11 199.96&#10;  Q 347.16 198.45 346.21 197.14&#10;  Q 346.15 197.05 339.70 190.33&#10;  Q 337.09 187.61 337.61 182.97&#10;  L 353.54 196.07&#10;  Q 354.18 196.59 353.70 197.27&#10;  Q 313.09 253.13 282.92 295.41&#10;  Q 279.58 300.09 278.33 301.78&#10;  Q 260.98 325.13 222.86 379.32&#10;  Q 218.73 385.19 215.16 391.41&#10;  Q 214.52 392.54 213.24 392.65&#10;  Q 211.76 392.78 208.53 392.94&#10;  Z"/>
<path fill="#f96f6c" d="&#10;  M 360.92 197.27&#10;  L 395.16 197.63&#10;  Q 395.78 197.64 395.78 198.25&#10;  L 395.78 203.23&#10;  Q 395.78 203.90 395.11 203.90&#10;  L 355.79 203.54&#10;  Q 358.69 198.50 360.92 197.27&#10;  Z"/>
<path fill="#fe3538" d="&#10;  M 145.83 197.76&#10;  L 140.98 203.95&#10;  Q 141.08 203.68 141.08 203.44&#10;  Q 141.09 202.90 140.58 202.73&#10;  Q 139.62 202.41 138.75 202.40&#10;  Q 77.87 202.29 2.76 202.47&#10;  Q 1.57 202.48 1.57 201.29&#10;  L 1.57 199.94&#10;  Q 1.57 198.60 2.91 198.51&#10;  Q 7.01 198.25 16.50 198.18&#10;  Q 27.55 198.10 138.81 198.16&#10;  Q 139.65 198.16 142.29 197.84&#10;  Q 143.89 197.65 145.83 197.76&#10;  Z"/>
<path fill="#edce99" d="&#10;  M 166.90 379.19&#10;  Q 164.66 380.94 162.64 382.59&#10;  Q 160.95 383.98 158.85 386.44&#10;  Q 155.88 389.91 152.35 392.81&#10;  Q 147.43 396.84 147.33 396.93&#10;  Q 104.87 434.08 61.41 469.91&#10;  Q 59.56 471.43 58.23 474.05&#10;  L 42.06 461.08&#10;  Q 41.33 460.49 41.53 459.58&#10;  Q 44.43 446.14 45.90 438.15&#10;  Q 47.37 430.13 48.45 425.93&#10;  C 49.82 420.57 50.37 415.99 51.82 409.60&#10;  Q 52.49 406.63 56.92 385.29&#10;  Q 57.13 384.30 58.36 379.11&#10;  C 59.49 374.40 60.06 369.43 61.28 364.67&#10;  Q 62.73 359.04 63.22 356.52&#10;  Q 64.83 348.33 70.76 319.60&#10;  Q 71.71 314.97 71.86 311.63&#10;  A 0.31 0.31 0.0 0 1 72.29 311.36&#10;  Q 79.54 314.51 87.07 315.89&#10;  C 91.19 316.64 96.11 317.08 99.90 315.61&#10;  Q 100.95 315.20 102.68 313.87&#10;  Q 105.91 311.36 109.22 308.99&#10;  A 1.30 1.30 0.0 0 1 110.92 309.15&#10;  Q 111.87 310.16 111.57 311.77&#10;  Q 110.90 315.33 110.56 317.14&#10;  A 1.77 1.62 19.5 0 0 111.51 318.93&#10;  L 111.74 319.05&#10;  A 1.20 1.02 -67.2 0 0 113.23 318.29&#10;  Q 114.38 315.06 115.27 310.20&#10;  Q 115.36 309.73 114.95 309.49&#10;  Q 114.33 309.12 113.92 308.21&#10;  Q 113.69 307.69 114.15 307.36&#10;  Q 115.52 306.40 116.99 306.03&#10;  Q 117.63 305.87 117.51 306.52&#10;  Q 117.30 307.75 116.34 309.30&#10;  Q 116.08 309.72 116.02 310.21&#10;  Q 115.51 313.89 115.21 318.15&#10;  Q 114.76 324.51 114.80 325.98&#10;  Q 115.05 335.31 113.44 347.61&#10;  Q 112.09 357.99 107.80 366.31&#10;  Q 106.85 368.14 108.68 367.20&#10;  Q 108.74 367.17 109.20 366.85&#10;  Q 109.46 366.67 109.77 366.60&#10;  C 115.54 365.37 119.97 364.22 125.75 363.27&#10;  Q 137.21 361.38 153.29 358.18&#10;  A 1.79 1.78 -18.5 0 1 155.26 359.16&#10;  Q 155.59 359.85 156.50 361.04&#10;  Q 162.91 369.49 166.90 379.19&#10;  Z&#10;  M 114.82 381.96&#10;  C 115.45 381.59 115.68 381.67 116.29 381.62&#10;  A 1.37 1.35 -69.8 0 0 117.16 381.21&#10;  Q 118.21 380.15 123.14 375.07&#10;  C 125.75 372.38 128.37 370.45 131.15 368.41&#10;  Q 135.55 365.17 130.34 366.81&#10;  Q 128.09 367.51 124.10 368.61&#10;  Q 121.52 369.32 117.75 369.86&#10;  Q 114.04 370.39 110.49 370.99&#10;  C 108.34 371.35 106.75 372.18 104.90 372.81&#10;  Q 102.15 373.76 101.06 374.88&#10;  Q 98.79 377.25 97.46 380.75&#10;  Q 95.96 384.67 93.85 391.37&#10;  Q 91.89 397.63 80.08 421.68&#10;  Q 78.47 424.95 76.48 428.69&#10;  Q 76.27 429.08 76.33 429.44&#10;  A 0.41 0.41 0.0 0 0 77.03 429.66&#10;  C 81.53 425.04 84.42 420.54 88.88 414.29&#10;  C 92.41 409.36 97.85 402.95 102.14 396.88&#10;  C 103.22 395.35 103.48 392.65 104.55 391.55&#10;  C 108.92 387.05 111.69 383.79 114.82 381.96&#10;  Z"/>
<path fill="#ddb77c" d="&#10;  M 165.14 350.08&#10;  Q 167.78 352.02 168.18 354.47&#10;  Q 169.39 358.04 170.94 361.40&#10;  Q 172.71 365.20 173.53 368.34&#10;  Q 175.12 374.48 176.91 380.45&#10;  L 174.37 385.51&#10;  Q 174.10 386.04 173.87 385.49&#10;  Q 171.66 380.18 168.77 371.51&#10;  Q 166.37 364.31 162.28 357.43&#10;  Q 162.01 356.99 162.10 356.48&#10;  Q 162.70 352.85 165.14 350.08&#10;  Z"/>
<path fill="#b3842b" d="&#10;  M 168.18 354.47&#10;  Q 172.15 360.08 174.81 368.23&#10;  Q 174.98 370.68 176.54 374.30&#10;  Q 176.51 378.23 178.42 378.91&#10;  Q 177.48 378.41 176.91 380.45&#10;  Q 175.12 374.48 173.53 368.34&#10;  Q 172.71 365.20 170.94 361.40&#10;  Q 169.39 358.04 168.18 354.47&#10;  Z"/>
<path fill="#ddb77c" d="&#10;  M 114.82 381.96&#10;  C 111.69 383.79 108.92 387.05 104.55 391.55&#10;  C 103.48 392.65 103.22 395.35 102.14 396.88&#10;  C 97.85 402.95 92.41 409.36 88.88 414.29&#10;  C 84.42 420.54 81.53 425.04 77.03 429.66&#10;  A 0.41 0.41 0.0 0 1 76.33 429.44&#10;  Q 76.27 429.08 76.48 428.69&#10;  Q 78.47 424.95 80.08 421.68&#10;  Q 91.89 397.63 93.85 391.37&#10;  Q 95.96 384.67 97.46 380.75&#10;  Q 98.79 377.25 101.06 374.88&#10;  Q 102.15 373.76 104.90 372.81&#10;  C 106.75 372.18 108.34 371.35 110.49 370.99&#10;  Q 114.04 370.39 117.75 369.86&#10;  Q 121.52 369.32 124.10 368.61&#10;  Q 128.09 367.51 130.34 366.81&#10;  Q 135.55 365.17 131.15 368.41&#10;  C 128.37 370.45 125.75 372.38 123.14 375.07&#10;  Q 118.21 380.15 117.16 381.21&#10;  A 1.37 1.35 -69.8 0 1 116.29 381.62&#10;  C 115.68 381.67 115.45 381.59 114.82 381.96&#10;  Z"/>
<path fill="#f96f6c" d="&#10;  M 230.43 378.24&#10;  L 393.35 378.80&#10;  Q 394.77 378.80 395.42 380.09&#10;  L 397.39 384.03&#10;  Q 397.97 385.18 396.64 385.17&#10;  L 225.68 384.83&#10;  Q 226.23 383.49 228.33 380.09&#10;  Q 229.36 378.42 230.43 378.24&#10;  Z"/>
<path fill="#b88c54" d="&#10;  M 166.90 379.19&#10;  L 170.09 390.24&#10;  Q 166.83 391.52 165.22 393.22&#10;  Q 159.61 399.12 153.12 407.85&#10;  Q 147.53 415.38 143.46 419.82&#10;  Q 132.67 431.59 130.71 433.46&#10;  Q 112.96 450.35 93.00 463.72&#10;  Q 90.92 465.11 88.94 467.50&#10;  C 87.75 468.94 87.83 470.33 88.79 471.82&#10;  Q 81.26 476.40 73.22 480.24&#10;  Q 71.69 480.97 70.09 480.96&#10;  Q 68.80 480.94 67.23 479.86&#10;  Q 62.90 476.87 58.23 474.05&#10;  Q 59.56 471.43 61.41 469.91&#10;  Q 104.87 434.08 147.33 396.93&#10;  Q 147.43 396.84 152.35 392.81&#10;  Q 155.88 389.91 158.85 386.44&#10;  Q 160.95 383.98 162.64 382.59&#10;  Q 164.66 380.94 166.90 379.19&#10;  Z"/>
<path fill="#c99856" d="&#10;  M 170.09 390.24&#10;  Q 169.75 393.08 168.06 395.66&#10;  Q 166.01 398.77 165.98 398.82&#10;  Q 160.83 407.84 148.74 428.50&#10;  Q 146.94 431.58 144.72 434.82&#10;  Q 143.00 437.34 140.30 439.20&#10;  Q 128.18 447.53 126.67 448.44&#10;  Q 107.58 459.90 88.79 471.82&#10;  C 87.83 470.33 87.75 468.94 88.94 467.50&#10;  Q 90.92 465.11 93.00 463.72&#10;  Q 112.96 450.35 130.71 433.46&#10;  Q 132.67 431.59 143.46 419.82&#10;  Q 147.53 415.38 153.12 407.85&#10;  Q 159.61 399.12 165.22 393.22&#10;  Q 166.83 391.52 170.09 390.24&#10;  Z"/>
<path fill="#c99856" d="&#10;  M 181.47 393.36&#10;  C 185.10 397.77 188.83 398.67 193.76 399.53&#10;  Q 195.75 399.87 194.03 400.93&#10;  Q 184.45 406.87 175.54 411.54&#10;  C 173.44 412.64 170.98 414.25 168.97 416.04&#10;  Q 164.16 420.34 159.15 424.39&#10;  Q 157.95 425.36 156.52 428.62&#10;  Q 155.02 430.25 153.38 430.49&#10;  Q 152.85 430.57 153.09 430.09&#10;  Q 156.38 423.71 157.58 421.24&#10;  Q 160.19 415.86 162.31 412.52&#10;  Q 169.19 401.67 176.09 391.56&#10;  A 0.77 0.76 29.3 0 1 177.04 391.30&#10;  L 181.47 393.36&#10;  Z"/>
<path fill="#b88c54" d="&#10;  M 156.52 428.62&#10;  Q 157.95 425.36 159.15 424.39&#10;  Q 164.16 420.34 168.97 416.04&#10;  C 170.98 414.25 173.44 412.64 175.54 411.54&#10;  Q 184.45 406.87 194.03 400.93&#10;  Q 195.75 399.87 193.76 399.53&#10;  C 188.83 398.67 185.10 397.77 181.47 393.36&#10;  Q 193.69 397.23 206.15 398.08&#10;  Q 206.87 398.13 206.24 398.49&#10;  Q 187.95 408.71 170.23 420.18&#10;  Q 168.29 421.44 163.29 424.24&#10;  Q 159.71 426.24 156.52 428.62&#10;  Z"/>
<rect fill="#f96f6c" x="157.67" y="470.33" width="238.14" height="7.12" rx="0.99"/>
</svg>